HIERARCHY
ROOT Hips
{
	OFFSET 0.00000 0.00000 0.00000
	CHANNELS 6 Xposition Yposition Zposition Zrotation Yrotation Xrotation 
	JOINT LHipJoint
	{
		OFFSET 0 0 0
		CHANNELS 3 Zrotation Yrotation Xrotation
		JOINT LeftUpLeg
		{
			OFFSET 1.42489 -1.84941 0.69647
			CHANNELS 3 Zrotation Yrotation Xrotation
			JOINT LeftLeg
			{
				OFFSET 2.44443 -6.71602 0.00000
				CHANNELS 3 Zrotation Yrotation Xrotation
				JOINT LeftFoot
				{
					OFFSET 2.62838 -7.22137 0.00000
					CHANNELS 3 Zrotation Yrotation Xrotation
					JOINT LeftToeBase
					{
						OFFSET 0.24036 -0.66037 2.29953
						CHANNELS 3 Zrotation Yrotation Xrotation
						End Site
						{
							OFFSET 0.00000 -0.00000 1.19837
						}
					}
				}
			}
		}
	}
	JOINT RHipJoint
	{
		OFFSET 0 0 0
		CHANNELS 3 Zrotation Yrotation Xrotation
		JOINT RightUpLeg
		{
			OFFSET -1.37055 -1.84941 0.69647
			CHANNELS 3 Zrotation Yrotation Xrotation
			JOINT RightLeg
			{
				OFFSET -2.54834 -7.00152 0.00000
				CHANNELS 3 Zrotation Yrotation Xrotation
				JOINT RightFoot
				{
					OFFSET -2.65692 -7.29983 0.00000
					CHANNELS 3 Zrotation Yrotation Xrotation
					JOINT RightToeBase
					{
						OFFSET -0.18839 -0.51760 2.29390
						CHANNELS 3 Zrotation Yrotation Xrotation
						End Site
						{
							OFFSET -0.00000 -0.00000 1.18261
						}
					}
				}
			}
		}
	}
	JOINT LowerBack
	{
		OFFSET 0 0 0
		CHANNELS 3 Zrotation Yrotation Xrotation
		JOINT Spine
		{
			OFFSET 0.05220 2.15489 0.05011
			CHANNELS 3 Zrotation Yrotation Xrotation
			JOINT Spine1
			{
				OFFSET -0.07653 2.14219 -0.05668
				CHANNELS 3 Zrotation Yrotation Xrotation
				JOINT Neck
				{
					OFFSET 0 0 0
					CHANNELS 3 Zrotation Yrotation Xrotation
					JOINT Neck1
					{
						OFFSET 0.01370 1.58638 0.01447
						CHANNELS 3 Zrotation Yrotation Xrotation
						JOINT Head
						{
							OFFSET 0.23548 1.54190 -0.21747
							CHANNELS 3 Zrotation Yrotation Xrotation
							End Site
							{
								OFFSET 0.07132 1.59823 -0.08163
							}
						}
					}
				}
				JOINT LeftShoulder
				{
					OFFSET 0 0 0
					CHANNELS 3 Zrotation Yrotation Xrotation
					JOINT LeftArm
					{
						OFFSET 3.47056 1.45357 -0.58896
						CHANNELS 3 Zrotation Yrotation Xrotation
						JOINT LeftForeArm
						{
							OFFSET 5.19069 -0.00000 0.00000
							CHANNELS 3 Zrotation Yrotation Xrotation
							JOINT LeftHand
							{
								OFFSET 3.30016 -0.00000 0.00000
								CHANNELS 3 Zrotation Yrotation Xrotation
								JOINT LeftFingerBase
								{
									OFFSET 0 0 0
									CHANNELS 3 Zrotation Yrotation Xrotation
									JOINT LeftHandIndex1
									{
										OFFSET 0.70770 -0.00000 0.00000
										CHANNELS 3 Zrotation Yrotation Xrotation
										End Site
										{
											OFFSET 0.57056 -0.00000 0.00000
										}
									}
								}
								JOINT LThumb
								{
									OFFSET 0 0 0
									CHANNELS 3 Zrotation Yrotation Xrotation
									End Site
									{
										OFFSET 0.57928 -0.00000 0.57928
									}
								}
							}
						}
					}
				}
				JOINT RightShoulder
				{
					OFFSET 0 0 0
					CHANNELS 3 Zrotation Yrotation Xrotation
					JOINT RightArm
					{
						OFFSET -2.89018 2.03305 -0.26731
						CHANNELS 3 Zrotation Yrotation Xrotation
						JOINT RightForeArm
						{
							OFFSET -5.23924 -0.00000 0.00000
							CHANNELS 3 Zrotation Yrotation Xrotation
							JOINT RightHand
							{
								OFFSET -3.32953 -0.00000 0.00000
								CHANNELS 3 Zrotation Yrotation Xrotation
								JOINT RightFingerBase
								{
									OFFSET 0 0 0
									CHANNELS 3 Zrotation Yrotation Xrotation
									JOINT RightHandIndex1
									{
										OFFSET -0.60741 -0.00000 0.00000
										CHANNELS 3 Zrotation Yrotation Xrotation
										End Site
										{
											OFFSET -0.48971 -0.00000 0.00000
										}
									}
								}
								JOINT RThumb
								{
									OFFSET 0 0 0
									CHANNELS 3 Zrotation Yrotation Xrotation
									End Site
									{
										OFFSET -0.49719 -0.00000 0.49719
									}
								}
							}
						}
					}
				}
			}
		}
	}
}
MOTION
Frames: 8
Frame Time: .0083333
16.154 17.6306 -29.4661 0 0 0 0 0 0 -21 0 0 0 0 0 0 0 0 0 0 0 0 0 0 21 0 0 0 0 0 0 0 0 0 0 0 0 0 0 0 0 0 0 0 0 0 0 -16 0 0 21 0 0 11 0 0 0 -8 0 0 0 0 0 0 0 0 0 0 0 0 0 0 0 0 0 0 0 0 8 0 0 0 0 0 0 0 0 0 0 0 0 0 0 0 0 0
16.1540 17.6306 -29.4661 -4.8008 -17.0402 6.2931 0.0000 0.0000 0.0000 -17.0188 4.7383 -15.4816 2.3018 9.4682 27.2712 1.4640 0.6809 -23.1351 0.0105 -0.6611 -1.8167 0.0000 0.0000 0.0000 22.8128 3.0381 -19.1762 -4.9609 -13.3397 40.6536 -1.4449 -7.8520 -26.7546 -0.3873 3.9965 -11.0668 2.2132 -1.3985 -3.0352 -1.3907 -1.9301 3.1499 -2.8188 -0.8550 4.8392 -11.1378 -9.5564 -1.9253 19.6661 -12.8305 -2.1050 7.3275 -6.3817 1.7893 -0.0000 0.0000 0.0000 -76.9750 -6.1042 32.5057 19.6185 -30.1800 -5.3382 -0.0000 0.0000 -10.8747 11.3853 -4.7202 -0.9493 -7.1250 0.0000 -0.0000 -11.4235 25.1529 5.5910 -0.0000 0.0000 0.0000 85.3389 -2.5350 36.7065 -18.7031 29.0480 -4.8858 0.0000 -0.0000 -3.2360 -12.4159 -7.7145 1.6928 7.1250 -0.0000 -0.0000 12.2641 -37.6150 2.2706
16.1633 17.6311 -29.4652 -4.7130 -17.1648 6.2912 0.0000 0.0000 0.0000 -17.1664 4.8807 -15.5223 2.2944 9.4541 27.2263 1.4602 0.6819 -23.1054 0.0106 -0.6659 -1.8300 0.0000 0.0000 0.0000 22.6271 3.3258 -19.3429 -5.0354 -13.4236 40.9755 -1.4781 -7.6257 -26.8433 -0.4362 4.2381 -11.7474 2.1032 -1.3074 -3.0923 -1.5497 -1.7970 3.2357 -2.9169 -0.7867 4.9684 -10.8091 -9.7000 -2.3778 19.6413 -13.0242 -1.9604 7.2235 -6.4525 1.9131 0.0000 0.0000 0.0000 -76.5578 -6.7776 33.0348 19.2406 -29.7165 -5.1495 -0.0000 0.0000 -11.0031 11.4196 -4.6553 -0.9392 -7.1250 0.0000 -0.0000 -11.4034 25.2173 5.5634 0.0000 0.0000 0.0000 85.5784 -2.4407 36.3925 -18.7364 29.0898 -4.9020 0.0000 -0.0000 -3.2532 -12.3371 -7.6608 1.6701 7.1250 -0.0000 -0.0000 12.3197 -37.5563 2.2993
16.1711 17.6298 -29.4615 -4.7963 -17.4689 6.3158 0.0000 0.0000 0.0000 -17.1468 4.8970 -15.4715 2.2927 9.4509 27.2162 1.4707 0.8842 -23.2624 0.0094 -0.6272 -1.7235 0.0000 0.0000 0.0000 22.6181 3.8393 -19.3202 -5.0570 -13.4477 41.0683 -1.5258 -7.1897 -26.9019 -0.5278 4.6556 -12.9288 1.9893 -1.3165 -3.0569 -1.4805 -1.8048 3.0737 -2.7767 -0.8007 4.7833 -11.0000 -9.6120 -2.3353 19.6789 -12.9332 -1.7464 7.2713 -6.4009 1.9690 -0.0000 0.0000 0.0000 -76.5908 -6.6015 32.9756 19.0841 -29.5231 -5.0722 -0.0000 0.0000 -10.9040 11.5646 -4.6953 -0.9596 -7.1250 0.0000 -0.0000 -11.2925 25.1753 5.5184 -0.0000 0.0000 0.0000 85.4124 -2.7373 36.6068 -18.7197 29.0689 -4.8939 0.0000 -0.0000 -3.2508 -12.3094 -7.6552 1.6650 7.1250 -0.0000 -0.0000 12.3417 -37.5488 2.3059
16.1806 17.6271 -29.4485 -4.8731 -17.6619 6.1775 0.0000 0.0000 0.0000 -17.1257 4.9308 -15.2101 2.2903 9.4463 27.2015 1.4853 1.0609 -23.4433 0.0094 -0.6264 -1.7214 0.0000 0.0000 0.0000 22.6039 4.1822 -19.1137 -5.0680 -13.4600 41.1157 -1.6600 -6.0345 -27.1492 -0.5163 4.6054 -12.7865 2.0121 -1.4004 -3.1319 -1.4551 -1.9206 3.0681 -2.7733 -0.8574 4.8132 -11.2634 -9.4555 -1.9283 19.7549 -12.7405 -1.7779 7.3761 -6.3260 1.8845 -0.0000 -0.0000 0.0000 -76.5751 -6.4851 32.7491 18.9283 -29.3294 -4.9957 -0.0000 0.0000 -10.8479 11.4687 -4.6728 -0.9469 -7.1250 0.0000 -0.0000 -11.3655 25.1991 5.5490 -0.0000 -0.0000 0.0000 85.2057 -2.9997 37.0540 -18.8062 29.1772 -4.9360 0.0000 -0.0000 -3.3177 -12.2670 -7.8043 1.6912 7.1250 -0.0000 -0.0000 12.4061 -37.6948 2.2731
16.1840 17.6277 -29.4454 -4.8937 -17.6412 6.1497 0.0000 0.0000 0.0000 -17.1165 4.8582 -15.1416 2.2907 9.4471 27.2041 1.4836 1.1503 -23.4651 0.0097 -0.6354 -1.7461 0.0000 0.0000 0.0000 22.6023 4.5918 -19.0491 -5.0469 -13.4365 41.0251 -1.7360 -5.2560 -27.2431 -0.5894 4.9153 -13.6671 2.0186 -1.3574 -3.1685 -1.5413 -1.8606 3.1674 -2.8659 -0.8227 4.9388 -11.0390 -9.5803 -2.3257 19.7908 -12.9023 -1.7026 7.3149 -6.3849 1.9866 0.0000 -0.0000 0.0000 -76.3380 -6.8885 33.0163 18.6751 -29.0129 -4.8722 -0.0000 0.0000 -10.7723 11.4446 -4.7604 -0.9625 -7.1250 0.0000 -0.0000 -11.3762 25.1118 5.5781 0.0000 -0.0000 0.0000 85.4053 -2.9056 36.7474 -18.7746 29.1377 -4.9206 0.0000 -0.0000 -3.2959 -12.2654 -7.7103 1.6707 7.1250 -0.0000 -0.0000 12.3891 -37.6010 2.2989
16.1894 17.6269 -29.4392 -4.9386 -17.7238 6.0957 0.0000 0.0000 0.0000 -17.1016 4.8269 -15.0202 2.2914 9.4484 27.2082 1.4890 1.2757 -23.5560 0.0097 -0.6371 -1.7507 0.0000 0.0000 0.0000 22.6088 4.9529 -18.8969 -5.0094 -13.3944 40.8633 -1.8081 -4.4933 -27.3401 -0.6338 5.0939 -14.1766 1.9908 -1.3729 -3.1857 -1.5520 -1.8796 3.1697 -2.8634 -0.8327 4.9503 -11.0533 -9.5738 -2.3665 19.8254 -12.9025 -1.6307 7.3244 -6.3806 2.0179 0.0000 -0.0000 0.0000 -76.2400 -6.9946 33.0827 18.4581 -28.7398 -4.7675 -0.0000 0.0000 -10.7045 11.4347 -4.7683 -0.9633 -7.1250 0.0000 -0.0000 -11.3830 25.1041 5.5836 0.0000 -0.0000 0.0000 85.3938 -3.0141 36.7732 -18.7736 29.1364 -4.9201 0.0000 -0.0000 -3.3067 -12.2461 -7.7113 1.6682 7.1250 -0.0000 -0.0000 12.4054 -37.6006 2.3022
16.1938 17.6259 -29.4323 -4.9918 -17.7782 6.0355 0.0000 0.0000 0.0000 -17.0712 4.7693 -14.8850 2.2939 9.4532 27.2235 1.4951 1.4022 -23.6528 0.0098 -0.6402 -1.7592 0.0000 0.0000 0.0000 22.6398 5.2973 -18.7079 -4.9530 -13.3307 40.6194 -1.8776 -3.7038 -27.4283 -0.6743 5.2510 -14.6258 1.9750 -1.3984 -3.2041 -1.5540 -1.9131 3.1734 -2.8595 -0.8496 4.9629 -11.0798 -9.5615 -2.3838 19.8615 -12.8945 -1.5716 7.3385 -6.3737 2.0411 -0.0000 -0.0000 0.0000 -76.1661 -7.0682 33.1215 18.2417 -28.4656 -4.6639 -0.0000 0.0000 -10.6179 11.4166 -4.7703 -0.9621 -7.1250 0.0000 -0.0000 -11.3962 25.1023 5.5908 -0.0000 -0.0000 0.0000 85.3770 -3.1225 36.7994 -18.7587 29.1177 -4.9129 0.0000 -0.0000 -3.3088 -12.2322 -7.7078 1.6655 7.1250 -0.0000 -0.0000 12.4164 -37.5962 2.3057
